<?xml version="1.0" encoding="UTF-8" standalone="no"?>
<!-- Created with Inkscape (http://www.inkscape.org/) -->

<svg
   xmlns:dc="http://purl.org/dc/elements/1.1/"
   xmlns:cc="http://creativecommons.org/ns#"
   xmlns:rdf="http://www.w3.org/1999/02/22-rdf-syntax-ns#"
   xmlns:svg="http://www.w3.org/2000/svg"
   xmlns="http://www.w3.org/2000/svg"
   xmlns:sodipodi="http://sodipodi.sourceforge.net/DTD/sodipodi-0.dtd"
   xmlns:inkscape="http://www.inkscape.org/namespaces/inkscape"
   width="210mm"
   height="297mm"
   viewBox="0 0 744.09448819 1052.3622047"
   id="svg2"
   version="1.1"
   inkscape:version="0.91 r13725"
   inkscape:export-filename="dicon.png"
   inkscape:export-xdpi="90"
   inkscape:export-ydpi="90"
   sodipodi:docname="描画.svg">
  <defs
     id="defs4" />
  <sodipodi:namedview
     id="base"
     pagecolor="#ffffff"
     bordercolor="#666666"
     borderopacity="1.0"
     inkscape:pageopacity="0.0"
     inkscape:pageshadow="2"
     inkscape:zoom="0.49497475"
     inkscape:cx="225.41933"
     inkscape:cy="685.95872"
     inkscape:document-units="px"
     inkscape:current-layer="layer1"
     showgrid="true"
     inkscape:window-width="1366"
     inkscape:window-height="706"
     inkscape:window-x="0"
     inkscape:window-y="27"
     inkscape:window-maximized="1">
    <inkscape:grid
       type="xygrid"
       id="grid4209" />
  </sodipodi:namedview>
  <metadata
     id="metadata7">
    <rdf:RDF>
      <cc:Work
         rdf:about="">
        <dc:format>image/svg+xml</dc:format>
        <dc:type
           rdf:resource="http://purl.org/dc/dcmitype/StillImage" />
        <dc:title></dc:title>
      </cc:Work>
    </rdf:RDF>
  </metadata>
  <g
     inkscape:label="レイヤー 1"
     inkscape:groupmode="layer"
     id="layer1">
    <rect
       style="opacity:0.953;fill:#ffffff;fill-opacity:1;stroke:#ffffff;stroke-width:27.23921585;stroke-miterlimit:4;stroke-dasharray:none;stroke-opacity:1"
       id="rect4353"
       width="972.7608"
       height="972.7608"
       x="-86.380394"
       y="-134.0182" />
    <path
       style="opacity:0.953;fill:#000000;fill-opacity:1;stroke:#000000;stroke-width:1.77100003;stroke-miterlimit:4;stroke-dasharray:none;stroke-opacity:1"
       d="M 300.88477 -48.523438 L 300.88477 51.476562 L 300.88477 151.47656 L 200.88477 151.47656 L 100.88477 151.47656 L 100.88477 251.47656 L 100.88477 351.47656 L 100.88477 451.47656 L 200.88477 451.47656 L 300.88477 451.47656 L 400.88477 451.47656 L 400.88477 351.47656 L 400.88477 251.47656 L 400.88477 151.47656 L 400.88477 51.476562 L 400.88477 -48.523438 L 300.88477 -48.523438 z M 200.88477 251.47656 L 300.88477 251.47656 L 300.88477 351.47656 L 200.88477 351.47656 L 200.88477 251.47656 z "
       id="rect4138" />
    <path
       style="opacity:0.953;fill:#6699ff;fill-opacity:1;stroke:#6699ff;stroke-width:1.77100003;stroke-miterlimit:4;stroke-dasharray:none;stroke-opacity:1"
       d="M 100.88477 451.47656 L 100.88477 551.47656 L 200.88477 551.47656 L 300.88477 551.47656 L 400.88477 551.47656 L 400.88477 451.47656 L 300.88477 451.47656 L 200.88477 451.47656 L 100.88477 451.47656 z "
       id="rect4138-6" />
    <path
       style="opacity:0.953;fill:#000000;fill-opacity:1;stroke:#000000;stroke-width:1.77100003;stroke-miterlimit:4;stroke-dasharray:none;stroke-opacity:1"
       d="M 400.88477 151.47656 L 400.88477 251.47656 L 400.88477 351.47656 L 400.88477 451.47656 L 400.88477 551.47656 L 400.88477 651.47656 L 500.88477 651.47656 L 500.88477 551.47656 L 500.88477 451.47656 L 600.88477 451.47656 L 700.88477 451.47656 L 700.88477 351.47656 L 700.88477 251.47656 L 700.88477 151.47656 L 600.88477 151.47656 L 500.88477 151.47656 L 400.88477 151.47656 z M 500.88477 251.47656 L 600.88477 251.47656 L 600.88477 351.47656 L 500.88477 351.47656 L 500.88477 251.47656 z "
       id="rect4138-6-1" />
    <path
       style="opacity:0.953;fill:#6699ff;fill-opacity:1;stroke:#6699ff;stroke-width:1.77100003;stroke-miterlimit:4;stroke-dasharray:none;stroke-opacity:1"
       d="M 500.88477 451.47656 L 500.88477 551.47656 L 600.88477 551.47656 L 700.88477 551.47656 L 700.88477 451.47656 L 600.88477 451.47656 L 500.88477 451.47656 z "
       id="rect4138-6-9-0" />
  </g>
</svg>
